# This file uses centimeters as units for non-parametric coordinates.

mtllib FloorTileEdge_Straight_01.mtl
g default
v -37.608707 -25.882664 -224.785294
v 137.243835 -25.882668 -224.785294
v 137.243835 26.952192 -224.785294
v -37.608685 26.952192 -399.637817
v 137.243835 26.952192 -399.637817
v 137.243835 -25.882668 -399.637817
v -41.736507 27.809175 -312.211548
v 137.243835 -25.882668 -312.211548
v 137.243835 26.952192 -312.211548
v 137.243835 -25.882668 -268.498413
v 137.243835 26.952192 -268.498413
v -36.770531 -24.847422 -353.552734
v 137.243835 26.952192 -355.924652
v 137.243835 -25.882668 -355.924652
v -39.548424 26.698343 -331.625977
v 137.243835 -25.882668 -334.068085
v 137.243835 26.952192 -334.068085
v -36.770531 -24.847424 -290.354980
v 137.243835 26.952192 -290.354980
v 137.243835 -25.882668 -290.354980
v -47.242401 28.401131 -249.863190
v 137.243835 -25.882668 -246.641861
v 137.243835 26.952192 -246.641861
v -36.860134 -25.152168 -379.523743
v 137.243835 26.952192 -377.781219
v 137.243835 -25.882668 -377.781219
v -37.608685 17.045656 -399.637817
v -40.668446 19.922009 -331.355621
v -44.018158 18.079472 -312.365540
v -47.066502 18.567486 -264.407440
v -48.318901 19.421791 -249.863174
v -38.266273 26.115551 -277.994446
v -39.069572 18.965246 -278.452179
v -41.735313 27.794104 -323.139801
v -42.987507 18.818476 -324.635559
v -37.487717 26.091337 -366.876404
v -38.309044 18.942329 -367.114075
v 5.928791 -25.882668 -399.637817
v 11.392901 26.952192 -399.637817
v 11.392901 26.952190 -377.781219
v 11.392901 26.952190 -355.924652
v 11.392901 26.952190 -334.068085
v 11.392901 26.952190 -312.211548
v 11.392901 26.952190 -290.354980
v 11.392901 26.952190 -268.498413
v 11.392901 26.952190 -246.641861
v 11.392901 26.952190 -224.785294
v -0.039513 26.952190 -276.066193
v -0.039520 26.952190 -290.354980
v -0.039520 26.952190 -301.283264
v -0.039520 26.952190 -323.139801
v -0.039520 26.952190 -334.068085
v -0.039520 26.952190 -343.346130
v -0.039520 26.952190 -366.852936
v -0.039520 26.952190 -377.781219
v -0.039507 26.952192 -394.408783
v -37.608685 -22.580488 -224.785294
v -37.525677 -22.476746 -353.552734
v -37.525677 -22.476746 -290.354980
v -37.525677 -22.476746 -379.523743
v -23.540752 26.952501 -366.852936
v -23.550367 26.955709 -331.684113
v -23.697344 27.009298 -323.139801
v -23.697344 27.009298 -312.211548
v -23.558659 26.955919 -277.746429
v -23.913748 27.030552 -268.498413
v -24.786509 27.242760 -249.911942
v -37.608685 -2.223993 -379.523743
v -43.321728 10.035616 -356.786224
v -45.255226 9.394017 -342.606018
v -40.918900 8.840173 -313.122131
v -44.681023 7.740430 -264.670593
v -45.535522 7.616763 -249.863190
v -37.608685 7.139116 -224.785294
v -37.608685 -2.767420 -224.785294
v -37.608685 3.164978 -290.411133
v -32.166466 26.952190 -224.785294
v -37.608685 -25.882662 -399.637817
v -35.511314 27.122972 -394.408783
v -36.684319 27.472412 -301.283264
v -37.525677 -22.476746 -312.211548
v -38.319092 29.460930 -343.624084
v -37.525677 -22.476746 -268.498413
v -39.094101 29.835001 -353.552734
v -45.738934 26.754530 -263.677368
v -43.906387 28.979656 -353.755005
v -46.257996 20.537483 -356.432312
v -37.608685 17.045652 -224.785294
v -37.525677 -22.476744 -249.913208
v -42.923492 27.963768 -290.464813
v -43.506168 19.460131 -291.597717
v -39.094467 26.342518 -301.303070
v -40.328892 28.971546 -290.354980
v -37.525677 -22.476746 -334.068085
v -44.123554 28.670147 -343.541687
v -40.815403 28.077591 -380.432526
v -38.555580 18.733770 -391.928589
v -37.980579 26.598089 -394.408783
v -37.959404 28.921228 -380.432526
v -24.003242 26.952192 -399.637817
v -23.781948 26.952341 -394.408783
v -23.579212 26.959917 -380.432526
v -23.540752 26.959663 -353.594940
v -23.541740 26.961016 -343.628601
v -23.551506 26.954315 -301.283264
v -23.649590 26.977152 -290.354980
v -32.166504 -25.882668 -379.523743
v -32.166504 -25.882668 -353.552734
v -32.166504 -25.882668 -290.354980
v -32.166504 -25.882668 -224.785294
v -37.608685 -22.580486 -399.637817
v -32.166504 -25.882668 -399.637817
v -32.166466 26.952192 -399.637817
v -36.770531 -24.847422 -312.211517
v -32.166504 -25.882668 -312.211517
v -39.135063 28.898920 -312.211517
v -39.175831 28.907621 -323.139801
v -36.770531 -24.847422 -268.498413
v -39.922588 28.066996 -266.279419
v -36.182915 27.274128 -277.777710
v -32.166504 -25.882668 -268.498413
v -35.446644 27.245741 -366.852936
v -37.608707 26.952192 -224.785294
v -47.352959 21.318295 -342.826843
v -39.527107 19.110428 -301.531555
v -36.770531 -24.930693 -249.913208
v -43.673920 30.150589 -249.450989
v -32.166504 -25.882668 -249.913208
v -36.770531 -24.847422 -334.068085
v -32.166504 -25.882668 -334.068085
v -36.919426 27.694296 -331.688507
v -41.378571 19.097473 -379.767975
v -24.003242 26.952190 -224.785294
v -37.608685 -2.767420 -399.637817
v -37.662731 0.730543 -312.497803
v -37.969166 3.210138 -324.614929
v -38.412594 11.902031 -366.291443
v -39.174561 11.976979 -332.001282
v -41.122261 10.251854 -323.870789
v -39.172352 13.276764 -301.094727
v -39.592041 9.549499 -291.537842
v -38.383595 11.314087 -279.567871
v -38.067989 2.623027 -335.327148
v -38.162670 8.986253 -385.167694
v -39.194332 -0.846973 -249.610596
v -38.162495 -0.231766 -268.736053
v -38.676491 -1.022564 -344.182404
v -38.396275 -1.061084 -353.243774
v -38.450485 7.889071 -378.960999
v -37.608685 7.139116 -399.637817
v -37.885677 3.381130 -386.938599
v -38.029587 2.832539 -379.242371
v -38.143742 5.296010 -363.365356
v -37.919827 -4.234306 -334.983154
v -38.350540 6.824399 -302.251068
v -38.778450 6.930511 -291.075653
v -38.253933 7.044475 -277.014923
vt 0.686586 0.314126
vt 0.000833 0.042548
vt 0.000833 0.027259
vt 0.042543 0.314126
vt 0.030667 0.328814
vt 0.341031 0.027259
vt 0.389454 0.314126
vt 0.389794 0.327801
vt 0.345903 0.312570
vt 0.346235 0.324916
vt 0.182004 0.027259
vt 0.217870 0.314126
vt 0.217012 0.325321
vt 0.536605 0.312570
vt 0.525716 0.324249
vt 0.507926 0.027259
vt 0.173602 0.314126
vt 0.174758 0.324664
vt 0.685620 0.243406
vt 0.591494 0.312570
vt 0.589109 0.316946
vt 0.579142 0.027259
vt 0.424646 0.027259
vt 0.476508 0.314126
vt 0.476160 0.328704
vt 0.432816 0.314126
vt 0.433011 0.323656
vt 0.257069 0.027259
vt 0.303666 0.314126
vt 0.304156 0.324811
vt 0.261404 0.314126
vt 0.260547 0.327568
vt 0.082284 0.027259
vt 0.130067 0.314126
vt 0.130459 0.328869
vt 0.086137 0.314126
vt 0.086394 0.325667
vt 0.602294 0.504825
vt 0.517042 0.503478
vt 0.431290 0.502742
vt 0.345546 0.502198
vt 0.259794 0.501826
vt 0.174082 0.501595
vt 0.088415 0.501610
vt 0.980762 0.211301
vt 0.022375 0.459870
vt 0.088413 0.452694
vt 0.131238 0.452659
vt 0.220502 0.455265
vt 0.259823 0.452889
vt 0.302713 0.453074
vt 0.388489 0.453529
vt 0.431369 0.453806
vt 0.480564 0.454131
vt 0.839269 0.074254
vt 0.685620 0.042548
vt 0.001499 0.330439
vt 0.341031 0.042548
vt 0.182004 0.042548
vt 0.507926 0.042548
vt 0.534211 0.270825
vt 0.383093 0.272511
vt 0.339845 0.268178
vt 0.218933 0.285889
vt 0.170340 0.280226
vt 0.046901 0.271976
vt 0.587984 0.272953
vt 0.579142 0.042548
vt 0.473650 0.271015
vt 0.424646 0.042548
vt 0.422317 0.275781
vt 0.294621 0.272222
vt 0.257069 0.042548
vt 0.268117 0.277882
vt 0.122029 0.268149
vt 0.082284 0.042548
vt 0.084311 0.271183
vt 0.001499 0.369398
vt 0.028601 0.370250
vt 0.087767 0.369696
vt 0.130822 0.369202
vt 0.173837 0.369378
vt 0.217133 0.369589
vt 0.260282 0.369676
vt 0.303275 0.369431
vt 0.346437 0.369628
vt 0.389464 0.370235
vt 0.432544 0.370198
vt 0.475594 0.370754
vt 0.511398 0.368280
vt 0.595920 0.358794
vt 0.685620 0.190717
vt 0.585387 0.209831
vt 0.469126 0.228540
vt 0.530343 0.213412
vt 0.385000 0.240370
vt 0.338067 0.217758
vt 0.265664 0.232794
vt 0.220513 0.224594
vt 0.000833 0.145127
vt 0.078860 0.150671
vt 0.293515 0.184932
vt 0.340630 0.172157
vt 0.426374 0.184982
vt 0.167546 0.224334
vt 0.963057 0.074235
vt 0.182004 0.000455
vt 0.927689 0.074241
vt 0.910005 0.074243
vt 0.424646 0.000455
vt 0.874637 0.074249
vt 0.856953 0.074251
vt 0.126998 0.229556
vt 0.252079 0.181564
vt 0.297283 0.225694
vt 0.054973 0.208926
vt 0.422203 0.220503
vt 0.079149 0.204755
vt 0.585110 0.154275
vt 0.510251 0.163482
vt 0.216494 0.161860
vt 0.180663 0.160472
vt 0.685620 0.138612
vt 0.000833 0.000455
vt 0.000833 0.249130
vt 0.001499 0.314126
vt 0.685620 0.027259
vt 0.686586 0.331211
vt 0.686586 0.372284
vt 0.980746 0.105055
vt 0.686586 0.505126
vt 0.686586 0.998614
vt 0.001499 0.501719
vt 0.001499 0.998614
vt 0.839290 0.211323
vt 0.963078 0.211304
vt 0.945394 0.211307
vt 0.086200 0.998614
vt 0.599639 0.998614
vt 0.513999 0.998614
vt 0.856974 0.211320
vt 0.892341 0.211315
vt 0.874658 0.211317
vt 0.428441 0.998614
vt 0.342895 0.998614
vt 0.257366 0.998614
vt 0.171813 0.998614
vt 0.927710 0.211309
vt 0.910026 0.211312
vt 0.000833 0.312570
vt 0.085405 0.312570
vt 0.129300 0.312569
vt 0.260534 0.312570
vt 0.302764 0.312570
vt 0.431812 0.312570
vt 0.475338 0.312570
vt 0.592622 0.314126
vt 0.172801 0.312570
vt 0.537691 0.314126
vt 0.217624 0.312570
vt 0.346840 0.314126
vt 0.388485 0.312570
vt 0.041845 0.312570
vt 0.685620 0.312570
vt 0.000833 0.197023
vt 0.049402 0.178870
vt 0.079057 0.177675
vt 0.139822 0.193593
vt 0.252999 0.145273
vt 0.380530 0.205114
vt 0.423973 0.205975
vt 0.478567 0.204701
vt 0.579142 0.000455
vt 0.685620 0.000455
vt 0.507926 0.000455
vt 0.892321 0.074246
vt 0.341031 0.000455
vt 0.257069 0.000455
vt 0.945373 0.074238
vt 0.082284 0.000455
vt 0.980741 0.074233
vn 0.000995 0.999999 0.000274
vn 0.000884 0.999999 0.001432
vn -0.000000 1.000000 0.000000
vn -0.000000 1.000000 0.000000
vn 0.000627 1.000000 -0.000652
vn -0.000000 1.000000 0.000000
vn -0.000000 1.000000 0.000000
vn -0.000000 1.000000 0.000000
vn 0.000077 1.000000 0.000052
vn -0.000000 1.000000 0.000000
vn -0.000000 1.000000 0.000000
vn -0.000000 1.000000 0.000000
vn -0.000000 1.000000 0.000000
vn 0.000011 1.000000 -0.000009
vn -0.000000 1.000000 0.000000
vn -0.000000 1.000000 0.000000
vn -0.000000 1.000000 0.000000
vn 0.000000 1.000000 -0.000000
vn 0.000812 0.999998 -0.001994
vn 0.000343 1.000000 -0.000020
vn 0.000625 0.999999 0.001180
vn 0.001215 0.999999 -0.001131
vn 0.000377 1.000000 -0.000618
vn 0.000203 1.000000 0.000102
vn 0.000098 1.000000 -0.000095
vn 0.000103 1.000000 0.000009
vn 0.000073 1.000000 -0.000102
vn -0.991183 -0.122721 -0.049953
vn -0.999470 -0.032007 -0.005960
vn -0.999290 -0.037262 -0.005557
vn -0.998128 -0.058337 -0.018380
vn -0.999784 -0.018914 -0.008638
vn -0.999350 -0.035693 -0.005100
vn -0.998445 -0.055599 -0.003962
vn -0.993345 -0.109914 -0.034425
vn -0.999978 -0.006182 -0.002289
vn -0.999855 -0.016336 0.004823
vn -0.983954 -0.176406 0.026771
vn -0.998011 -0.063031 0.001237
vn -0.998421 -0.051560 0.022307
vn -0.989638 -0.125692 0.069421
vn 0.000000 -1.000000 0.000000
vn 0.000000 -1.000000 0.000000
vn 0.000000 -1.000000 0.000000
vn -0.003869 -0.999992 0.000350
vn -0.002009 -0.999998 0.000544
vn 0.000000 -1.000000 0.000000
vn -0.005555 -0.999985 0.000096
vn 0.000000 -1.000000 0.000000
vn -0.005787 -0.999983 0.000000
vn 0.000000 -1.000000 0.000000
vn -0.005949 -0.999982 -0.000000
vn 0.000000 -1.000000 0.000000
vn -0.005949 -0.999982 0.000000
vn 0.000000 -1.000000 0.000000
vn -0.005618 -0.999984 -0.000026
vn 0.000000 -1.000000 0.000000
vn -0.003998 -0.999992 -0.000366
vn 0.000000 -1.000000 0.000000
vn -0.002913 -0.999996 -0.000631
vn -0.992432 -0.122786 -0.001342
vn -0.988699 -0.112696 -0.098867
vn -0.999160 -0.036480 -0.018674
vn -0.998898 -0.045579 -0.011216
vn -0.968953 -0.243428 0.043288
vn -0.951848 -0.297644 0.073439
vn -0.998628 -0.051467 0.009636
vn -0.972986 -0.221838 0.063925
vn -0.945246 -0.252105 0.207250
vn -0.931128 -0.328809 0.157753
vn -0.921004 -0.383088 0.070677
vn -0.948310 -0.258342 0.184301
vn -0.527581 -0.849096 0.026341
vn -0.531264 -0.847075 0.014922
vn -0.925765 0.365768 -0.095777
vn -0.997046 -0.024558 -0.072782
vn -0.989822 -0.038192 -0.137092
vn -0.925684 0.331593 -0.182086
vn -0.999627 -0.025330 0.010254
vn -0.983499 -0.178045 -0.032089
vn -0.950159 0.022316 -0.310966
vn -0.986319 0.009850 -0.164556
vn -0.969803 -0.167196 -0.177560
vn -0.914471 -0.309438 -0.260750
vn -0.961726 -0.038594 -0.271280
vn -0.986942 -0.047232 -0.153993
vn -0.966391 -0.209523 -0.148962
vn -0.905565 -0.373876 -0.200420
vn -0.995461 -0.094137 0.013966
vn -0.998084 -0.053857 0.030458
vn -0.975252 -0.219649 0.025278
vn 0.036083 0.999349 -0.000234
vn 0.032895 0.999323 0.016496
vn 0.029061 0.999432 -0.017049
vn 0.023886 0.999703 0.004829
vn 0.031219 0.999512 0.001222
vn 0.030219 0.999543 0.000791
vn 0.036159 0.999295 0.010113
vn 0.039153 0.999182 -0.010161
vn 0.040004 0.999191 0.004225
vn 0.051726 0.998552 0.014782
vn 0.047104 0.998805 -0.013058
vn 0.036025 0.999337 -0.005318
vn 0.029678 0.999559 -0.000856
vn 0.020657 0.999670 -0.015260
vn 0.002249 0.999991 -0.003619
vn 0.000224 0.999906 0.013717
vn 0.059642 0.996147 0.064293
vn -0.813557 0.446447 0.372572
vn -0.888658 0.415566 0.193884
vn -0.526520 -0.849773 -0.025746
vn -0.531072 -0.847181 -0.015715
vn -0.003185 0.999916 -0.012567
vn 0.021061 0.997954 -0.060375
vn -0.999295 -0.037365 0.003715
vn -0.536376 -0.843979 -0.000000
vn -0.536376 -0.843979 -0.000000
vn 0.018384 0.998989 0.041018
vn 0.025370 0.999672 -0.003507
vn -0.921743 0.365183 0.130505
vn -0.927995 0.372196 -0.017218
vn -0.998620 -0.051984 0.007506
vn -0.536375 -0.843980 0.000000
vn 0.024306 0.998999 -0.037551
vn -0.916536 0.382524 -0.116776
vn -0.537161 -0.843473 0.003360
vn 0.047471 0.997017 -0.060850
vn 0.063883 0.996124 0.060457
vn -0.771563 0.587192 -0.244739
vn -0.769732 0.612903 0.178502
vn -0.536708 -0.843768 -0.000869
vn -0.002215 0.999942 0.010504
vn 0.009417 0.997095 -0.075584
vn -0.908825 0.407561 -0.089058
vn -0.848303 0.448146 -0.282042
vn 0.035222 0.999016 -0.026971
vn -0.862459 0.477083 -0.168983
vn -0.932548 -0.043945 0.358362
vn -0.977090 -0.044602 0.208100
vn -0.991728 -0.042316 0.121184
vn -0.988102 -0.031700 -0.150498
vn -0.983194 0.018882 0.181584
vn -0.944221 -0.297717 0.140749
vn -0.955069 0.291676 0.052621
vn -0.020989 0.999753 0.007376
vn -0.799047 0.579000 0.162120
vn -0.976967 0.011548 0.213077
vn -0.954113 -0.279673 -0.107009
vn 0.040388 0.998916 0.023142
vn -0.998468 -0.054891 0.006967
vn -0.948945 0.315441 0.000488
vn 0.003511 0.999993 0.001202
vn -0.941513 -0.214175 0.260159
vn -0.998681 -0.027641 -0.043260
vn -0.976333 -0.162364 -0.142873
vn -0.988884 -0.148691 0.000002
vn -0.942675 -0.264245 -0.203809
s 1
g LOWEDGE
usemtl lambert7SG
f 46/38/1 47/131/2 3/132/3 23/139/4
f 45/39/5 46/38/1 23/139/4 11/140/6
f 19/144/7 44/40/8 45/39/5 11/140/6
f 43/41/9 44/40/8 19/144/7 9/145/10
f 42/42/11 43/41/9 9/145/10 17/146/12
f 13/147/13 41/43/14 42/42/11 17/146/12
f 25/138/15 40/44/16 41/43/14 13/147/13
f 5/134/17 39/133/18 40/44/16 25/138/15
f 48/54/19 45/39/5 44/40/8 49/53/20
f 44/40/8 43/41/9 50/52/21 49/53/20
f 51/51/22 43/41/9 42/42/11 52/50/23
f 42/42/11 41/43/14 53/49/24 52/50/23
f 54/48/25 41/43/14 40/44/16 55/47/26
f 40/44/16 39/133/18 56/46/27 55/47/26
f 146/120/28 76/104/29 59/70/30 83/60/31
f 68/101/32 60/76/33 58/59/34 148/122/35
f 134/100/36 111/2/37 60/76/33 68/101/32
f 145/119/38 89/68/39 57/56/40 75/123/41
f 38/130/42 6/45/43 26/136/44 107/106/45 112/181/46
f 26/136/44 14/137/47 108/179/48 107/106/45
f 14/137/47 16/148/49 130/108/50 108/179/48
f 130/108/50 16/148/49 8/149/51 115/109/52
f 8/149/51 20/142/53 109/176/54 115/109/52
f 20/142/53 10/143/55 121/111/56 109/176/54
f 10/143/55 22/141/57 128/112/58 121/111/56
f 22/141/57 2/135/59 110/55/60 128/112/58
f 149/118/61 144/116/62 151/166/63 152/167/64
f 140/96/65 71/97/66 135/103/67 155/170/68
f 138/98/69 70/99/70 147/121/71 143/114/72
f 60/76/33 111/2/37 78/3/73 24/33/74
f 4/150/75 27/125/76 97/66/77 98/163/78
f 154/169/79 135/103/67 136/102/80 143/114/72
f 87/65/81 37/75/82 137/113/83 69/105/84
f 30/61/85 33/69/86 142/94/87 72/95/88
f 91/71/89 125/62/90 140/96/65 141/117/91
f 148/122/35 154/169/79 143/114/72 147/121/71
f 67/91/92 133/129/93 47/131/2 46/38/1
f 45/39/5 66/90/94 67/91/92 46/38/1
f 65/89/95 66/90/94 45/39/5 48/54/19
f 49/53/20 106/88/96 65/89/95 48/54/19
f 50/52/21 105/87/97 106/88/96 49/53/20
f 64/86/98 105/87/97 50/52/21 43/41/9
f 63/85/99 64/86/98 43/41/9 51/51/22
f 62/84/100 63/85/99 51/51/22 52/50/23
f 53/49/24 104/83/101 62/84/100 52/50/23
f 41/43/14 103/82/102 104/83/101 53/49/24
f 61/81/103 103/82/102 41/43/14 54/48/25
f 55/47/26 102/80/104 61/81/103 54/48/25
f 56/46/27 101/79/105 102/80/104 55/47/26
f 39/133/18 100/78/106 101/79/105 56/46/27
f 127/21/107 77/128/108 133/129/93 67/91/92
f 123/1/109 77/128/108 127/21/107 21/157/110
f 110/174/60 1/127/111 126/22/112 128/173/58
f 24/33/74 78/3/73 112/124/46 107/180/45
f 100/78/106 113/57/113 79/5/114 101/79/105
f 79/5/114 113/57/113 4/126/75 98/4/78
f 59/70/30 81/58/115 114/6/116 18/23/117
f 18/23/117 114/6/116 115/177/52 109/110/54
f 116/10/118 80/8/119 105/87/97 64/86/98
f 80/8/119 116/10/118 7/161/120 92/7/121
f 114/6/116 81/58/115 94/73/122 129/28/123
f 117/30/124 116/10/118 64/86/98 63/85/99
f 116/10/118 117/30/124 34/29/125 7/161/120
f 115/177/52 114/6/116 129/28/123 130/178/50
f 94/73/122 58/59/34 12/11/126 129/28/123
f 129/28/123 12/11/126 108/107/48 130/178/50
f 103/82/102 84/18/127 82/13/128 104/83/101
f 82/13/128 84/18/127 86/17/129 95/12/130
f 83/60/31 59/70/30 18/23/117 118/16/131
f 120/25/132 119/15/133 66/90/94 65/89/95
f 119/15/133 120/25/132 32/24/134 85/159/135
f 118/16/131 18/23/117 109/110/54 121/175/56
f 89/68/39 83/60/31 118/16/131 126/22/112
f 128/173/58 126/22/112 118/16/131 121/175/56
f 66/90/94 119/15/133 127/21/107 67/91/92
f 127/21/107 119/15/133 85/159/135 21/157/110
f 58/59/34 60/76/33 24/33/74 12/11/126
f 122/35/136 84/18/127 103/82/102 61/81/103
f 84/18/127 122/35/136 36/34/137 86/17/129
f 12/11/126 24/33/74 107/180/45 108/107/48
f 88/19/138 123/164/109 21/20/110 31/67/139
f 85/14/135 30/61/85 31/67/139 21/20/110
f 32/156/134 33/69/86 30/61/85 85/14/135
f 7/9/120 29/63/140 125/62/90 92/162/121
f 34/154/125 35/72/141 29/63/140 7/9/120
f 87/65/81 124/64/142 95/160/130 86/158/129
f 36/152/137 37/75/82 87/65/81 86/158/129
f 145/119/38 146/120/28 83/60/31 89/68/39
f 135/103/67 81/58/115 59/70/30 76/104/29
f 31/67/139 30/61/85 72/95/88 73/93/143
f 89/68/39 126/22/112 1/127/111 57/56/40
f 91/71/89 33/69/86 32/156/134 90/155/144
f 33/69/86 91/71/89 141/117/91 142/94/87
f 106/88/96 93/27/145 120/25/132 65/89/95
f 120/25/132 93/27/145 90/26/144 32/24/134
f 92/162/121 125/62/90 91/71/89 90/155/144
f 105/87/97 80/8/119 93/27/145 106/88/96
f 93/27/145 80/8/119 92/7/121 90/26/144
f 15/153/146 28/74/147 35/72/141 34/154/125
f 35/72/141 28/74/147 138/98/69 139/115/148
f 131/32/149 117/30/124 63/85/99 62/84/100
f 117/30/124 131/32/149 15/31/146 34/29/125
f 95/160/130 124/64/142 28/74/147 15/153/146
f 104/83/101 82/13/128 131/32/149 62/84/100
f 131/32/149 82/13/128 95/12/130 15/31/146
f 132/77/150 37/75/82 36/152/137 96/151/151
f 102/80/104 99/37/152 122/35/136 61/81/103
f 122/35/136 99/37/152 96/36/151 36/34/137
f 98/163/78 97/66/77 132/77/150 96/151/151
f 101/79/105 79/5/114 99/37/152 102/80/104
f 99/37/152 79/5/114 98/4/78 96/36/151
f 74/92/153 88/19/138 31/67/139 73/93/143
f 29/63/140 71/97/66 140/96/65 125/62/90
f 70/99/70 138/98/69 28/74/147 124/64/142
f 87/65/81 69/105/84 70/99/70 124/64/142
f 149/118/61 137/113/83 37/75/82 132/77/150
f 134/100/36 151/166/63 144/116/62 150/165/154
f 145/119/38 75/123/41 74/92/153 73/93/143
f 152/167/64 153/168/155 137/113/83 149/118/61
f 136/102/80 139/115/148 138/98/69 143/114/72
f 155/170/68 156/171/156 141/117/91 140/96/65
f 142/94/87 141/117/91 156/171/156 157/172/157
f 71/97/66 139/115/148 136/102/80 135/103/67
f 97/66/77 144/116/62 149/118/61 132/77/150
f 146/120/28 145/119/38 73/93/143 72/95/88
f 148/122/35 147/121/71 70/99/70 69/105/84
f 35/72/141 139/115/148 71/97/66 29/63/140
f 146/120/28 72/95/88 142/94/87 157/172/157
f 148/122/35 69/105/84 137/113/83 153/168/155
f 150/165/154 144/116/62 97/66/77 27/125/76
f 151/166/63 134/100/36 68/101/32 152/167/64
f 153/168/155 152/167/64 68/101/32 148/122/35
f 94/73/122 154/169/79 148/122/35 58/59/34
f 81/58/115 135/103/67 154/169/79 94/73/122
f 135/103/67 76/104/29 156/171/156 155/170/68
f 157/172/157 156/171/156 76/104/29 146/120/28
