# This file uses centimeters as units for non-parametric coordinates.

mtllib FloorTileEdge_InnerCorner_01.mtl
g default
v 137.243820 26.952190 -666.478394
v 67.358498 23.664400 -599.330200
v -32.166458 26.952190 -666.478394
v -37.608658 26.952190 -666.478394
v -14.447647 26.060772 -658.060303
v 137.243805 26.952190 -497.068085
v 137.243820 26.952190 -491.625916
v 125.709641 26.579052 -512.690491
v 70.436623 -23.639095 -599.666077
v 137.243820 -25.882668 -666.478394
v -37.608658 -25.882668 -666.478394
v -14.079361 -24.137337 -658.923889
v -32.166519 -25.882668 -666.478394
v 129.691757 -24.137337 -515.149475
v 137.243820 -25.882668 -497.068054
v 137.243820 -25.882668 -491.625916
v -9.608658 27.040302 -659.904175
v 81.099220 26.952190 -610.352112
v 128.387558 27.398594 -518.314697
v -9.311539 -25.729370 -660.412109
v 81.189430 -25.882668 -610.419556
v 131.179184 -25.729370 -519.917175
v 65.912331 19.521357 -600.007690
v 126.639389 20.451281 -511.002441
v 137.243820 17.045656 -491.625916
v -37.608658 17.045652 -666.478394
v -15.765518 20.168516 -657.259033
v 137.243820 7.139117 -491.625916
v 105.180946 26.865053 -532.305481
v 105.708534 19.184263 -531.085754
v 118.457008 -23.639095 -536.787964
v 126.768532 -25.882668 -545.350586
v 137.243805 -25.882668 -548.041504
v 137.243805 26.952190 -548.041504
v 126.216530 26.952190 -545.099060
v 3.513161 25.621548 -641.814941
v 15.142189 26.952190 -654.766113
v 18.811256 26.952190 -666.478394
v 18.811256 -25.882668 -666.478394
v 16.121437 -25.882668 -656.001099
v 7.559059 -23.639095 -647.688354
v 2.611183 17.574705 -642.558472
v 52.636452 26.952190 -637.234253
v 53.355202 -25.882668 -637.870728
v 40.754250 -23.639095 -625.431519
v 33.135841 2.179048 -621.502197
v 27.812965 15.460957 -617.074829
v 28.382668 24.858253 -615.740112
v 108.164223 26.952190 -582.369873
v 84.732643 26.100971 -563.728638
v 82.954506 18.533442 -560.852539
v 87.805824 6.159481 -566.774231
v 96.201210 -23.639095 -569.983459
v 108.640053 -25.882668 -582.585632
v 113.439735 27.194031 -520.688782
v 115.203285 19.577204 -519.062744
v 124.640793 -23.701298 -525.002197
v 129.904099 -25.882668 -530.750977
v 137.243820 -25.882668 -528.302002
v 137.243820 26.952190 -528.302002
v 129.135849 26.952190 -530.275146
v -5.325951 25.683689 -649.627930
v 0.750473 26.952190 -658.033875
v -0.927505 26.952190 -666.478394
v -0.927505 -25.882668 -666.478394
v 1.522079 -25.882668 -659.137085
v -4.226707 -23.701298 -653.872437
v -6.987572 18.784231 -650.190857
v 45.261696 26.952190 -666.478394
v 29.421608 26.952190 -650.812256
v 14.644264 24.981340 -635.653931
v 15.650490 16.941395 -636.982300
v 19.276711 -23.639095 -640.919128
v 30.413918 -25.882668 -651.821777
v 45.261696 -25.882668 -666.478394
v -2.983910 27.655909 -652.393494
v 117.991432 29.779179 -523.832947
v 110.908852 29.728489 -535.832703
v 91.925758 29.470688 -569.841187
v 71.889748 26.947630 -601.726868
v 35.832375 28.906609 -621.148987
v 19.531471 28.362719 -640.324219
v 7.444557 28.276817 -644.958618
v -1.393822 -25.656696 -655.215210
v 125.982948 -25.656696 -527.835083
v 10.712624 -25.646328 -649.504761
v 23.119362 -25.646328 -643.628052
v 44.735451 -25.646328 -628.732483
v 73.424416 -25.646328 -602.654053
v 99.502052 -25.646328 -573.965088
v 120.272987 -25.646328 -539.941650
v -26.465164 -24.674179 -663.560120
v -16.630569 -25.813297 -663.620789
v 134.386917 -25.813295 -512.598511
v 134.326630 -24.674173 -502.763977
v -16.644424 26.952190 -663.535522
v -28.798965 26.126646 -660.943054
v 130.992386 26.254206 -500.897827
v 133.346100 26.966068 -512.054810
v -27.995071 19.750740 -660.685852
v 129.442703 20.445444 -498.660645
v 66.733742 -2.299522 -601.190552
v 134.101654 -2.767418 -501.640961
v 137.243820 -2.767420 -491.625916
v -27.592789 -2.767417 -663.336670
v -37.608658 -2.767420 -666.478394
v 133.914856 7.127569 -501.848907
v -27.472733 10.711531 -663.264893
v -37.608658 7.139116 -666.478394
v 69.812782 -21.635138 -599.042114
v 134.193863 -22.324100 -501.639435
v 137.243820 -22.580490 -491.625916
v -27.589798 -22.324104 -663.427307
v -37.608658 -22.580490 -666.478394
v -5.088516 -2.767418 -653.234741
v -14.900284 -2.767418 -658.385071
v -4.825089 -21.676605 -653.498108
v -14.748672 -21.967299 -658.536682
v 124.266525 -21.676605 -524.403748
v 129.304733 -21.967300 -514.480164
v 124.003159 -2.767418 -524.140381
v 129.153061 -2.767418 -514.328491
v 100.100502 20.080124 -546.223267
v 100.549294 24.528618 -549.398254
v 105.899818 -1.857993 -554.501282
v 107.364357 -21.635138 -553.242004
v 107.982887 -23.639095 -554.041626
v 111.035561 -25.646332 -558.115234
v 137.243805 -25.882668 -599.118958
v 137.243805 26.952190 -599.118958
v 105.993568 26.824736 -554.990906
v 95.540871 -21.635138 -569.202393
v 91.873024 1.656967 -571.034546
v 39.973244 -21.635138 -624.771179
v 69.886940 26.952190 -666.478394
v 69.886940 -25.882668 -666.478394
v 18.509499 -21.635138 -640.353149
v 18.453835 -2.587762 -639.774292
v 53.986427 27.473614 -608.573730
v 49.488625 23.789230 -602.276611
v 49.497047 17.077553 -601.902405
v 53.789406 4.090531 -608.073792
v 55.323830 -21.635138 -612.337524
v 56.007790 -23.639095 -612.961060
v 59.367043 -25.646332 -615.980408
v 86.750404 -25.646332 -588.596680
v 83.731239 -23.639095 -585.237061
v 83.107704 -21.635138 -584.553101
v 79.465797 2.015798 -585.729370
v 74.434669 6.131414 -587.333679
v 69.534584 17.845888 -583.533508
v 70.775124 25.503834 -584.761108
v 78.656349 29.892368 -587.156860
v 118.024208 -21.635138 -536.117981
v 117.749855 -2.767433 -535.826416
v 6.889015 -21.635138 -647.255493
v 6.608376 -2.767418 -646.974792
v 119.521950 26.952190 -566.020813
v 119.869667 -25.882668 -566.229065
v -13.082291 11.059492 -657.252563
v 18.939796 5.959286 -638.201477
v 104.953957 8.959044 -552.210083
v 117.066200 4.289664 -535.391663
v 5.440163 6.207519 -647.247559
v 52.944679 -0.756930 -611.978699
v 123.371811 4.782973 -523.874390
v -4.466202 7.054765 -653.165527
v 65.668678 9.372393 -601.709778
v 127.229050 6.971573 -515.934753
v 38.488625 -2.008101 -622.941650
v 137.243805 26.952190 -573.580261
v 137.243805 -25.882668 -573.580261
v 90.906349 27.629354 -594.298096
v 78.827370 26.951065 -608.224365
v 63.932961 27.066326 -620.335632
v 90.870705 -25.764500 -592.584900
v 77.306923 -25.764498 -606.536804
v 63.354897 -25.764500 -620.100891
vt 0.915420 0.206052
vt 0.342283 0.014121
vt 0.656594 0.014121
vt 0.030829 0.311352
vt 0.622507 0.993134
vt 0.032880 0.283962
vt 0.000483 0.314146
vt 0.000483 0.998614
vt 0.654827 0.311352
vt 0.335856 0.276094
vt 0.258109 0.737968
vt 0.339325 0.311352
vt 0.333840 0.152988
vt 0.656573 0.147022
vt 0.029530 0.159819
vt 0.031215 0.233168
vt 0.815640 0.207521
vt 0.657901 0.277030
vt 0.000522 0.269421
vt 0.655259 0.200748
vt 0.342403 0.036036
vt 0.658870 0.036036
vt 0.028848 0.014121
vt 0.026644 0.036036
vt 0.004133 0.379672
vt 0.024158 0.423338
vt 0.066558 0.283901
vt 0.065467 0.156849
vt 0.063664 0.036036
vt 0.064699 0.014121
vt 0.903660 0.203099
vt 0.000483 0.457536
vt 0.816057 0.097675
vt 0.817872 0.107752
vt 0.610883 0.001707
vt 0.591927 0.036036
vt 0.591158 0.143488
vt 0.588580 0.279828
vt 0.575383 0.905382
vt 0.581881 0.965840
vt 0.538611 0.973575
vt 0.462579 0.851989
vt 0.506306 0.281583
vt 0.501954 0.036036
vt 0.501101 0.014121
vt 0.439771 0.874744
vt 0.447801 0.014121
vt 0.448477 0.036036
vt 0.441987 0.202035
vt 0.446809 0.278930
vt 0.407402 0.790491
vt 0.177809 0.598870
vt 0.166565 0.014121
vt 0.165789 0.036036
vt 0.167294 0.152206
vt 0.165088 0.261961
vt 0.124206 0.513544
vt 0.237671 0.014121
vt 0.237152 0.036036
vt 0.228786 0.186650
vt 0.225525 0.267215
vt 0.228196 0.311352
vt 0.228370 0.668196
vt 0.293715 0.311352
vt 0.293364 0.271709
vt 0.294823 0.191148
vt 0.290122 0.036036
vt 0.290309 0.014121
vt 0.394644 0.014121
vt 0.395051 0.036036
vt 0.379603 0.271088
vt 0.325937 0.733254
vt 0.314788 0.767967
vt 0.381030 0.819704
vt 0.514717 0.896675
vt 0.545493 0.311352
vt 0.548885 0.282629
vt 0.555844 0.141403
vt 0.556185 0.036036
vt 0.555279 0.014121
vt 0.820735 0.119533
vt 0.476801 0.955667
vt 0.083587 0.488889
vt 0.027458 0.461006
vt 0.000483 0.534787
vt 0.094472 0.014121
vt 0.093628 0.036036
vt 0.094844 0.154775
vt 0.096331 0.275755
vt 0.066103 0.437710
vt 0.103059 0.535436
vt 0.131884 0.311352
vt 0.128253 0.269541
vt 0.130216 0.152569
vt 0.129345 0.036036
vt 0.130196 0.014121
vt 0.031746 0.403947
vt 0.395627 0.927640
vt 0.331778 0.883008
vt 0.115823 0.665585
vt 0.061704 0.575247
vt 0.045200 0.519860
vt 0.560340 0.924590
vt 0.905562 0.200560
vt 0.591029 0.014121
vt 0.586004 0.001707
vt 0.550507 0.001707
vt 0.832904 0.137322
vt 0.444582 0.001707
vt 0.848575 0.157147
vt 0.342004 0.001707
vt 0.866262 0.174970
vt 0.875717 0.183275
vt 0.889696 0.192987
vt 0.897726 0.196828
vt 0.621279 0.311352
vt 0.620765 0.014121
vt 0.822732 0.129007
vt 0.884945 0.198283
vt 0.894202 0.201029
vt 0.910683 0.203950
vt 0.000522 0.014121
vt 0.684961 0.014121
vt 0.000483 0.338609
vt 0.053898 0.448883
vt 0.815982 0.117927
vt 0.621862 0.036036
vt 0.620575 0.145171
vt 0.625041 0.276643
vt 0.497051 0.146125
vt 0.439210 0.163299
vt 0.387980 0.171188
vt 0.376477 0.199521
vt 0.815933 0.130727
vt 0.223264 0.775258
vt 0.870105 0.189180
vt 0.852125 0.171311
vt 0.834395 0.153196
vt 0.827154 0.142562
vt 0.072277 0.232578
vt 0.501347 0.206751
vt 0.555641 0.179772
vt 0.590476 0.184954
vt 0.170215 0.199514
vt 0.613920 0.199266
vt 0.331647 0.218656
vt 0.237667 0.154026
vt 0.286525 0.161062
vt 0.097040 0.208231
vt 0.127528 0.201390
vt 0.892432 0.207816
vt 0.905230 0.207866
vt 0.542194 0.998614
vt 0.464597 0.998614
vt 0.265943 0.998614
vt 0.859314 0.207688
vt 0.875281 0.207749
vt 0.000483 0.733665
vt 0.000483 0.637875
vt 0.815807 0.163845
vt 0.661402 0.998614
vt 0.011605 0.001707
vt 0.684961 0.036036
vt 0.684961 0.202471
vt 0.684961 0.149500
vt 0.684961 0.256119
vt 0.684961 0.311352
vt 0.685780 0.998614
vt 0.000522 0.311352
vt 0.604591 0.955236
vt 0.068892 0.311352
vt 0.164884 0.311352
vt 0.097955 0.471347
vt 0.529577 0.871700
vt 0.377657 0.311352
vt 0.255978 0.648595
vt 0.201339 0.566978
vt 0.443858 0.311352
vt 0.500148 0.311352
vt 0.583525 0.311352
vt 0.100974 0.311352
vt 0.270717 0.716561
vt 0.667642 0.985829
vt 0.013130 0.328977
vt 0.000522 0.036036
vt 0.000522 0.216157
vt 0.000522 0.163120
vt 0.365270 0.998614
vt 0.815871 0.147286
vt 0.285623 0.815205
vt 0.231860 0.766059
vt 0.182929 0.708492
vt 0.845892 0.159723
vt 0.854653 0.168803
vt 0.863666 0.177633
vt 0.392889 0.001707
vt 0.840343 0.147628
vt 0.291549 0.001707
vt 0.857180 0.166294
vt 0.496614 0.001707
vt 0.826959 0.125516
vt 0.631787 0.001707
vt 0.673776 0.002030
vt 0.053558 0.001707
vt 0.925486 0.207945
vt 0.099417 0.001707
vt 0.134925 0.001707
vt 0.823288 0.117651
vt 0.240569 0.001707
vt 0.170907 0.001707
vt 0.819937 0.112505
vt 0.074490 0.001707
vn -0.222509 -0.560253 0.797876
vn -0.034489 -0.993066 0.112384
vn -0.119015 -0.958899 0.257580
vn -0.269482 -0.702259 0.658947
vn -0.351497 -0.079239 0.932830
vn -0.337727 -0.006784 0.941220
vn -0.402392 -0.009982 0.915413
vn -0.440726 -0.115404 0.890192
vn -0.326983 -0.020833 0.944801
vn -0.401142 -0.037052 0.915266
vn -0.707900 -0.095878 0.699775
vn -0.426100 -0.798051 0.426092
vn -0.440626 -0.810493 0.385940
vn -0.757298 -0.104968 0.644578
vn -0.466276 -0.011972 0.884558
vn -0.521054 -0.161499 0.838106
vn -0.463920 -0.045455 0.884710
vn -0.341680 -0.662552 0.666543
vn -0.060479 0.994380 0.086896
vn -0.052026 0.998480 0.018202
vn -0.624874 0.490126 0.607709
vn -0.600220 0.496950 0.626719
vn 0.000000 1.000000 -0.000000
vn 0.000000 1.000000 0.000000
vn 0.019364 0.999229 -0.034142
vn 0.010085 0.999910 -0.008838
vn -0.410695 -0.298997 0.861354
vn -0.364924 0.507988 0.780243
vn -0.668615 -0.309385 0.676192
vn -0.599807 -0.453497 0.659220
vn -0.429015 -0.402046 0.808892
vn -0.604314 -0.191372 0.773422
vn -0.597662 -0.182654 0.780665
vn -0.116688 -0.984541 0.130625
vn -0.385954 -0.810488 0.440623
vn -0.344324 -0.821798 0.453971
vn -0.081831 -0.990908 0.106795
vn 0.042555 0.998988 -0.014538
vn -0.031462 0.986837 0.158627
vn 0.001944 0.999996 -0.002138
vn 0.000000 1.000000 -0.000000
vn 0.000000 1.000000 0.000000
vn 0.016173 0.999858 -0.004832
vn 0.026881 0.999586 -0.010231
vn 0.000000 1.000000 -0.000000
vn -0.252367 -0.191982 0.948395
vn -0.051919 -0.916344 0.397012
vn -0.145292 -0.978663 0.145290
vn -0.130624 -0.984542 0.116683
vn -0.112416 -0.993062 0.034490
vn -0.397054 -0.916326 0.051922
vn -0.948383 -0.192001 0.252398
vn -0.797944 -0.560157 0.222507
vn -0.015046 0.998528 0.052118
vn -0.339559 0.463087 0.818688
vn -0.365477 0.614711 0.698969
vn -0.086988 0.993791 0.069366
vn -0.019921 0.989679 0.141913
vn -0.499758 0.203816 0.841844
vn -0.690563 0.614856 0.380886
vn -0.003844 0.999852 0.016744
vn 0.088157 0.992377 0.086116
vn -0.493965 0.678099 0.544224
vn -0.695722 0.387976 0.604521
vn -0.104497 0.994314 0.020482
vn -0.648106 -0.192020 0.736945
vn -0.523299 0.702135 0.482871
vn -0.364873 -0.074209 0.928095
vn -0.428252 -0.071063 0.900861
vn -0.434634 -0.087929 0.896304
vn -0.884409 -0.100849 0.455687
vn -0.822185 -0.106280 0.559211
vn -0.696857 0.645725 0.312135
vn -0.873438 -0.188217 0.449089
vn -0.088784 0.995928 0.015654
vn -0.119970 0.992639 0.016561
vn -0.944808 -0.020830 0.326961
vn -0.939950 -0.016287 0.340925
vn -0.912146 -0.031092 0.408685
vn -0.915289 -0.037046 0.401092
vn -0.297262 -0.001909 0.954794
vn -0.291396 -0.012204 0.956525
vn -0.327926 -0.048918 0.943436
vn -0.698068 -0.092935 0.709975
vn -0.755046 -0.208655 0.621586
vn -0.956511 -0.012206 0.291442
vn -0.954416 -0.003428 0.298460
vn -0.787998 -0.400122 0.467934
vn -0.614426 -0.301591 0.729056
vn -0.901927 -0.127874 0.412524
vn -0.911455 -0.161771 0.378259
vn -0.818373 -0.267931 0.508409
vn -0.631029 -0.113457 0.767418
vn 0.009510 0.999027 -0.043072
vn -0.103347 0.992850 0.059728
vn 0.000000 1.000000 0.000000
vn -0.575334 0.467316 0.671272
vn -0.608723 -0.156849 0.777724
vn -0.122437 -0.959870 0.252308
vn -0.001231 -0.999983 0.005650
vn -0.004823 -0.999875 0.015082
vn -0.015085 -0.999875 0.004823
vn -0.005650 -0.999983 0.001231
vn -0.257648 -0.958879 0.119034
vn -0.252357 -0.959855 0.122450
vn -0.884728 -0.045451 0.463887
vn -0.666615 -0.662475 0.341691
vn -0.659063 -0.702151 0.269480
vn -0.883711 -0.040420 0.466284
vn -0.745808 -0.400181 0.532566
vn -0.829980 -0.197820 0.521536
vn -0.688614 -0.353043 0.633381
vn -0.617861 0.500711 0.606248
vn 0.021148 0.996914 0.075600
vn 0.000911 1.000000 -0.000222
vn 0.094454 0.995083 -0.029797
vn -0.515529 0.777516 0.360138
vn -0.760531 -0.366955 0.535665
vn -0.795067 -0.429901 0.427848
vn -0.759996 0.567841 0.316168
vn -0.680156 -0.490650 0.544657
vn -0.782034 -0.423694 0.457063
vn -0.857134 -0.057656 0.511857
vn -0.798560 -0.121439 0.589538
vn -0.816780 -0.072693 0.572351
vn -0.860008 -0.054782 0.507332
vn -0.505901 -0.797246 0.329339
vn -0.621651 -0.703753 0.343920
vn -0.113177 -0.990892 0.072966
vn -0.170106 -0.981418 0.088782
vn -0.005418 -0.999981 0.003116
vn 0.000000 -1.000000 -0.000000
vn 0.000000 -1.000000 -0.000000
vn -0.009526 -0.999948 0.003694
vn -0.018499 0.999579 0.022370
vn -0.071824 0.997022 -0.028069
vn -0.106818 -0.990667 0.084672
vn -0.444784 -0.825880 0.346540
vn -0.776110 -0.097019 0.623089
vn -0.752538 -0.216617 0.621903
vn -0.727160 -0.241421 0.642615
vn -0.634457 -0.536544 0.556403
vn -0.532422 0.716967 0.449983
vn -0.031100 0.996530 0.077203
vn -0.667752 -0.345011 0.659602
vn -0.689040 -0.277857 0.669343
vn -0.609293 -0.121951 0.783512
vn -0.576882 -0.092560 0.811566
vn -0.339981 -0.782360 0.521848
vn -0.079924 -0.989098 0.123682
vn 0.038632 0.998459 -0.039837
vn -0.490577 0.369664 0.789103
vn -0.068081 0.993887 0.086910
vn 0.000000 1.000000 -0.000000
vn 0.011504 0.999020 -0.042735
vn 0.000000 -1.000000 -0.000000
vn -0.003305 -0.999952 0.009261
vn -0.087392 -0.980367 0.176757
vn -0.339847 -0.689644 0.639449
vn -0.491985 -0.053781 0.868941
vn -0.501710 -0.030867 0.864485
vn -0.515271 -0.221750 0.827842
vn -0.526181 -0.241648 0.815316
vn -0.592302 -0.109099 0.798295
vn 0.000000 -1.000000 -0.000000
vn -0.003510 -0.999975 0.006137
vn 0.084226 0.991946 -0.094597
vn 0.029084 0.997696 -0.061299
vn -0.001322 -0.999998 0.001778
vn -0.000906 -0.999999 0.000906
vn -0.014930 -0.999777 0.014930
vn -0.014158 -0.999789 0.014864
vn -0.001549 -0.999998 0.001234
vn -0.014864 -0.999789 0.014158
vn 0.000000 1.000000 0.000000
vn 0.000000 -1.000000 0.000000
vn 0.000000 -1.000000 0.000000
vn 0.000000 -1.000000 0.000000
s 1
g LOWINCORN
usemtl lambert9SG
f 92/23/1 93/204/2 20/212/3 12/30/4
f 108/16/5 105/15/6 116/28/7 160/140/8
f 105/15/6 113/24/9 118/29/10 116/28/7
f 110/21/11 9/2/12 147/69/13 148/70/14
f 113/24/9 92/23/1 12/30/4 118/29/10
f 115/88/15 167/149/16 160/140/8 116/28/7
f 117/87/17 118/29/10 12/30/4 67/86/18
f 81/52/19 82/91/20 71/57/21 48/177/22
f 135/158/23 69/159/24 70/101/25 43/100/26
f 141/65/27 140/64/28 48/62/22 47/61/29
f 141/65/27 47/61/29 46/60/30 142/66/31
f 142/66/31 46/60/30 170/147/32 165/148/33
f 145/198/34 144/68/35 45/58/36 88/209/37
f 175/192/38 43/100/26 81/52/19 139/63/39
f 135/158/23 43/100/26 18/135/40 1/8/41
f 130/155/42 49/99/43 158/98/44 171/188/45
f 92/23/1 11/122/46 13/162/47 93/204/2
f 145/198/34 89/111/48 9/2/12 144/68/35
f 147/69/13 9/2/12 89/111/48 146/196/49
f 94/202/50 15/203/51 16/123/52 95/3/53
f 96/25/54 97/184/55 5/97/56 17/26/57
f 96/25/54 3/124/58 4/7/59 97/184/55
f 98/183/60 99/5/61 19/40/62 8/170/63
f 98/183/60 7/168/64 6/161/65 99/5/61
f 141/65/27 23/10/66 2/12/67 140/64/28
f 5/171/56 97/4/55 100/6/68 27/27/69
f 97/4/55 4/169/59 26/19/70 100/6/68
f 101/18/71 25/166/72 7/167/64 98/9/60
f 152/175/73 2/12/67 23/10/66 151/71/74
f 139/63/39 140/176/28 2/182/67 80/11/75
f 153/73/76 80/11/75 2/182/67 152/72/73
f 111/22/77 103/14/78 122/128/79 120/127/80
f 105/15/6 106/187/81 114/185/82 113/24/9
f 105/15/6 108/16/5 109/186/83 106/187/81
f 102/13/84 110/21/11 148/70/14 149/132/85
f 103/14/78 111/22/77 112/163/86 104/165/87
f 150/133/88 151/71/74 23/10/66 168/146/89
f 28/164/90 25/166/72 101/18/71 107/20/91
f 100/6/68 26/19/70 109/186/83 108/16/5
f 23/10/66 141/65/27 142/66/31 168/146/89
f 103/14/78 107/20/91 169/145/92 122/128/79
f 104/165/87 28/164/90 107/20/91 103/14/78
f 95/3/53 16/123/52 112/163/86 111/22/77
f 114/185/82 11/122/46 92/23/1 113/24/9
f 143/67/93 144/68/35 9/2/12 110/21/11
f 63/84/94 96/25/54 17/26/57 76/125/95
f 63/84/94 64/32/96 3/124/58 96/25/54
f 62/181/97 5/171/56 27/27/69 68/89/98
f 167/149/16 68/89/98 27/27/69 160/140/8
f 117/87/17 115/88/15 116/28/7 118/29/10
f 20/212/3 84/206/99 67/86/18 12/30/4
f 93/1/2 13/205/47 65/152/100 66/31/101
f 58/81/102 59/126/103 15/33/51 94/34/50
f 22/211/104 85/208/105 58/81/102 94/34/50
f 119/36/106 57/105/107 14/117/108 120/127/80
f 121/37/109 119/36/106 120/127/80 122/128/79
f 122/128/79 169/145/92 166/143/110 121/37/109
f 24/129/111 56/38/112 166/143/110 169/145/92
f 56/38/112 24/129/111 8/116/63 55/180/113
f 55/39/113 8/170/63 19/40/62 77/103/114
f 99/5/61 6/161/65 60/153/115 61/41/116
f 124/179/117 123/43/118 30/77/119 29/76/120
f 30/77/119 123/43/118 162/141/121 163/142/122
f 155/78/123 163/142/122 162/141/121 125/130/124
f 125/130/124 126/44/125 154/79/126 155/78/123
f 126/44/125 127/45/127 31/80/128 154/79/126
f 127/45/127 128/200/129 91/107/130 31/80/128
f 159/139/131 172/189/132 33/134/133 32/118/134
f 131/46/135 124/42/117 29/174/120 78/75/136
f 90/109/137 128/200/129 127/45/127 53/47/138
f 126/44/125 132/48/139 53/47/138 127/45/127
f 133/131/140 132/48/139 126/44/125 125/130/124
f 123/43/118 51/50/141 52/49/142 162/141/121
f 51/50/141 123/43/118 124/179/117 50/178/143
f 50/51/143 124/42/117 131/46/135 79/74/144
f 161/144/145 46/60/30 47/61/29 72/56/146
f 45/58/36 134/59/147 137/54/148 73/53/149
f 87/210/150 88/209/37 45/58/36 73/53/149
f 72/56/146 47/61/29 48/62/22 71/172/21
f 134/59/147 45/58/36 144/68/35 143/67/93
f 139/63/39 81/52/19 48/177/22 140/176/28
f 147/69/13 146/196/49 90/109/137 53/47/138
f 148/70/14 147/69/13 53/47/138 132/48/139
f 52/49/142 51/50/141 151/71/74 150/133/88
f 152/175/73 151/71/74 51/50/141 50/178/143
f 153/73/76 152/72/73 50/51/143 79/74/144
f 148/70/14 132/48/139 133/131/140 149/132/85
f 29/76/120 30/77/119 56/38/112 55/180/113
f 56/38/112 30/77/119 163/142/122 166/143/110
f 121/37/109 166/143/110 163/142/122 155/78/123
f 154/79/126 119/36/106 121/37/109 155/78/123
f 154/79/126 31/80/128 57/105/107 119/36/106
f 31/80/128 91/107/130 85/106/105 57/105/107
f 32/118/134 33/134/133 59/126/103 58/81/102
f 77/103/114 61/41/116 35/82/151 78/75/136
f 62/90/97 36/173/152 83/83/153 76/125/95
f 38/85/154 64/32/96 63/84/94 37/102/155
f 66/31/101 65/152/100 39/151/156 40/120/157
f 67/86/18 84/206/99 86/207/158 41/96/159
f 117/87/17 67/86/18 41/96/159 156/95/160
f 115/88/15 117/87/17 156/95/160 157/94/161
f 157/94/161 164/150/162 167/149/16 115/88/15
f 42/93/163 68/89/98 167/149/16 164/150/162
f 62/181/97 68/89/98 42/93/163 36/92/152
f 83/83/153 36/173/152 71/57/21 82/91/20
f 36/92/152 42/93/163 72/56/146 71/172/21
f 161/144/145 72/56/146 42/93/163 164/150/162
f 161/144/145 164/150/162 157/94/161 138/55/164
f 156/95/160 137/54/148 138/55/164 157/94/161
f 156/95/160 41/96/159 73/53/149 137/54/148
f 41/96/159 86/207/158 87/210/150 73/53/149
f 39/151/156 75/157/165 74/119/166 40/120/157
f 62/90/97 76/125/95 17/26/57 5/97/56
f 35/82/151 158/98/44 131/46/135 78/75/136
f 158/98/44 49/99/43 79/74/144 131/46/135
f 49/99/43 173/190/167 153/73/76 79/74/144
f 173/190/167 174/191/168 80/11/75 153/73/76
f 80/11/75 174/191/168 175/192/38 139/63/39
f 81/52/19 43/100/26 70/101/25 82/91/20
f 70/101/25 37/102/155 83/83/153 82/91/20
f 78/75/136 29/174/120 55/39/113 77/103/114
f 83/83/153 37/102/155 63/84/94 76/125/95
f 66/31/101 84/104/99 20/121/3 93/1/2
f 57/105/107 85/106/105 22/35/104 14/117/108
f 40/120/157 74/119/166 87/114/150 86/115/158
f 74/119/166 44/136/169 88/113/37 87/114/150
f 44/136/169 21/137/170 177/194/171 178/195/172
f 21/137/170 54/138/173 176/193/174 177/194/171
f 54/138/173 159/139/131 128/108/129 90/197/137
f 159/139/131 32/118/134 91/201/130 128/108/129
f 32/118/134 58/81/102 85/208/105 91/201/130
f 84/104/99 66/31/101 40/120/157 86/115/158
f 38/85/154 37/102/155 70/101/25 69/159/24
f 1/8/41 18/135/40 49/99/43 130/155/42
f 34/154/175 35/82/151 61/41/116 60/153/115
f 19/40/62 99/5/61 61/41/116 77/103/114
f 98/9/60 8/116/63 24/129/111 101/18/71
f 101/18/71 24/129/111 169/145/92 107/20/91
f 111/22/77 120/127/80 14/117/108 95/3/53
f 14/117/108 22/35/104 94/202/50 95/3/53
f 21/137/170 10/17/176 129/160/177 54/138/173
f 10/17/176 21/137/170 44/136/169 136/156/178
f 44/136/169 74/119/166 75/157/165 136/156/178
f 108/16/5 160/140/8 27/27/69 100/6/68
f 134/59/147 170/147/32 138/55/164 137/54/148
f 133/131/140 125/130/124 162/141/121 52/49/142
f 165/148/33 102/13/84 168/146/89 142/66/31
f 165/148/33 143/67/93 110/21/11 102/13/84
f 102/13/84 149/132/85 150/133/88 168/146/89
f 165/148/33 170/147/32 134/59/147 143/67/93
f 138/55/164 170/147/32 46/60/30 161/144/145
f 150/133/88 149/132/85 133/131/140 52/49/142
f 158/98/44 35/82/151 34/154/175 171/188/45
f 129/160/177 172/189/132 159/139/131 54/138/173
f 49/99/43 18/135/40 174/191/168 173/190/167
f 18/135/40 43/100/26 175/192/38 174/191/168
f 176/193/174 54/138/173 90/197/137 146/110/49
f 177/194/171 176/193/174 146/110/49 89/199/48
f 178/195/172 177/194/171 89/199/48 145/112/34
f 44/136/169 178/195/172 145/112/34 88/113/37
